# xmcd
#
# Track frame offsets: 
#        150
#        12558
#        23118
#        38175
#        50512
#        63022
#        80280
#        96633
#        110192
#        124525
#        138357
#
# Disc length: 2282 seconds
#
# Revision: 1
# Processed by: cddbd v1.5.2PL0 Copyright (c) Steve Scherf et al.
# Submitted via: ExactAudioCopy v0.99pb5
#
DISCID=9208e80b
DTITLE=Edwin Starr - The Best Of Edwin Starr: 20th Century Masters The
DTITLE=Millennium Collection
DYEAR=2001
DGENRE=Soul
TTITLE0=Agent Double-O-Soul
TTITLE1=Stop Her On Sight (S. O. S)
TTITLE2=Twenty-Five Miles
TTITLE3=I Am The Man For You Baby
TTITLE4=Oh How Happy (With Blinky Williams)
TTITLE5=War
TTITLE6=Stop The War Now
TTITLE7=Time
TTITLE8=Funky Music Sho Nuff Turns Me On
TTITLE9=There You Go
TTITLE10=Contact
EXTD=
EXTT0=
EXTT1=
EXTT2=
EXTT3=
EXTT4=
EXTT5=
EXTT6=
EXTT7=
EXTT8=
EXTT9=
EXTT10=
PLAYORDER=
